<svg version="1.1" viewBox="0.0 0.0 912.49343832021 618.2598425196851" fill="none" stroke="none" stroke-linecap="square" stroke-miterlimit="10" xmlns:xlink="http://www.w3.org/1999/xlink" xmlns="http://www.w3.org/2000/svg"><clipPath id="p.0"><path d="m0 0l912.4934 0l0 618.2598l-912.4934 0l0 -618.2598z" clip-rule="nonzero"/></clipPath><g clip-path="url(#p.0)"><path fill="#000000" fill-opacity="0.0" d="m0 0l912.4934 0l0 618.2598l-912.4934 0z" fill-rule="evenodd"/><path fill="#6fa8dc" d="m264.00876 425.53503l0 0c0 -94.766754 86.06802 -171.5904 192.23831 -171.5904l0 0c106.17029 0 192.23828 76.82364 192.23828 171.5904l0 0c0 94.766785 -86.06799 171.5904 -192.23828 171.5904l0 0c-106.17029 0 -192.23831 -76.82361 -192.23831 -171.5904z" fill-rule="evenodd"/><path fill="#6fa8dc" d="m282.0422 352.86777l174.20486 -331.73392l174.20483 331.73392z" fill-rule="evenodd"/><path fill="#e06666" d="m204.92369 94.469734l36.661423 -36.661415l465.98422 465.98428l-36.661377 36.661377z" fill-rule="evenodd"/><path fill="#e06666" d="m670.90796 57.807007l36.661377 36.661415l-465.98422 465.98428l-36.661423 -36.661438z" fill-rule="evenodd"/></g></svg>