<svg version="1.1" viewBox="0.0 0.0 912.49343832021 618.2598425196851" fill="none" stroke="none" stroke-linecap="square" stroke-miterlimit="10" xmlns:xlink="http://www.w3.org/1999/xlink" xmlns="http://www.w3.org/2000/svg"><clipPath id="p.0"><path d="m0 0l912.4934 0l0 618.2598l-912.4934 0l0 -618.2598z" clip-rule="nonzero"/></clipPath><g clip-path="url(#p.0)"><path fill="#000000" fill-opacity="0.0" d="m0 0l912.4934 0l0 618.2598l-912.4934 0z" fill-rule="evenodd"/><path fill="#6fa8dc" d="m258.67737 425.5352l0 0c0 -94.766754 88.45438 -171.5904 197.56842 -171.5904l0 0c109.11401 0 197.56842 76.82364 197.56842 171.5904l0 0c0 94.766754 -88.45441 171.59042 -197.56842 171.59042l0 0c-109.114044 0 -197.56842 -76.82367 -197.56842 -171.59042z" fill-rule="evenodd"/><path fill="#6fa8dc" d="m277.2108 352.86792l179.035 -331.73392l179.03497 331.73392z" fill-rule="evenodd"/><path fill="#9fc5e8" d="m601.41846 394.97415l0 0c0 -7.54599 5.9087524 -13.663208 13.197632 -13.663208l0 0c3.500183 0 6.8570557 1.4395142 9.332092 4.0018616c2.4750366 2.5623474 3.8654785 6.037628 3.8654785 9.661346l0 0c0 7.54599 -5.9087524 13.663208 -13.197571 13.663208l0 0c-7.2888794 0 -13.197632 -6.117218 -13.197632 -13.663208z" fill-rule="evenodd"/><path fill="#9fc5e8" d="m284.67606 394.97415l0 0c0 -7.54599 5.908783 -13.663208 13.197601 -13.663208l0 0c3.5002136 0 6.857086 1.4395142 9.332123 4.0018616c2.4750366 2.5623474 3.8654785 6.037628 3.8654785 9.661346l0 0c0 7.54599 -5.9087524 13.663208 -13.197601 13.663208l0 0c-7.2888184 0 -13.197601 -6.117218 -13.197601 -13.663208z" fill-rule="evenodd"/><path fill="#9fc5e8" d="m297.87366 381.31094l316.74243 0l0 27.326416l-316.74243 0z" fill-rule="evenodd"/><path fill="#9fc5e8" d="m579.51697 350.99283l0 0c5.1539307 -5.3357544 13.510071 -5.3357544 18.664062 0l0 0c2.4749756 2.562317 3.8654175 6.037567 3.8654175 9.661255c0 3.6236572 -1.3904419 7.0989075 -3.8654175 9.661224l0 0c-5.1539917 5.335785 -13.510132 5.335785 -18.664062 0l0 0c-5.1539307 -5.3357544 -5.1539307 -13.986725 0 -19.32248z" fill-rule="evenodd"/><path fill="#9fc5e8" d="m579.828 350.65738l18.67627 19.335175l-37.328064 38.64499l-18.67627 -19.335175z" fill-rule="evenodd"/><path fill="#9fc5e8" d="m598.1803 419.6348l0 0c5.1539307 5.335785 5.1539307 13.986755 0 19.32251l0 0c-2.4750366 2.562317 -5.831848 4.001831 -9.332031 4.001831c-3.500183 0 -6.8569946 -1.4395142 -9.332031 -4.001831l0 0c-5.1539307 -5.3357544 -5.1539307 -13.986725 0 -19.32251l0 0c5.1539307 -5.3357544 13.510132 -5.3357544 18.664062 0z" fill-rule="evenodd"/><path fill="#9fc5e8" d="m598.5043 419.95685l-18.67627 19.335175l-37.328064 -38.64502l18.67627 -19.335175z" fill-rule="evenodd"/><path fill="#9fc5e8" d="m314.30905 370.31458l0 0c-5.1539307 -5.3357544 -5.1539307 -13.986725 0 -19.32248l0 0c2.475006 -2.5623474 5.8318176 -4.001831 9.332001 -4.001831c3.5002136 0 6.857025 1.4394836 9.332031 4.001831l0 0c5.1539307 5.3357544 5.1539307 13.986725 0 19.32248l0 0c-5.1539307 5.3357544 -13.510101 5.3357544 -18.664032 0z" fill-rule="evenodd"/><path fill="#9fc5e8" d="m313.98502 369.99255l18.6763 -19.335175l37.328094 38.64499l-18.6763 19.335175z" fill-rule="evenodd"/><path fill="#9fc5e8" d="m332.97238 438.95657l0 0c-5.1539307 5.3357544 -13.510132 5.3357544 -18.664062 0l0 0c-2.475006 -2.562317 -3.865448 -6.0375977 -3.865448 -9.661255c0 -3.6236572 1.3904419 -7.098938 3.865448 -9.661255l0 0c5.1539307 -5.3357544 13.510132 -5.3357544 18.664062 0l0 0c5.1539307 5.3357544 5.1539307 13.986755 0 19.32251z" fill-rule="evenodd"/><path fill="#9fc5e8" d="m332.66132 439.29202l-18.6763 -19.335175l37.328094 -38.64502l18.6763 19.335175z" fill-rule="evenodd"/><path fill="#9fc5e8" d="m456.2454 545.2699l0 0c7.2888184 0 13.197601 6.1172485 13.197601 13.663208l0 0c0 3.6237183 -1.3904724 7.098999 -3.865509 9.661316c-2.475006 2.562378 -5.8318787 4.001892 -9.332092 4.001892l0 0c-7.288849 0 -13.197601 -6.1172485 -13.197601 -13.663208l0 0c0 -7.5459595 5.9087524 -13.663208 13.197601 -13.663208z" fill-rule="evenodd"/><path fill="#9fc5e8" d="m456.2454 217.35309l0 0c7.2888184 0 13.197601 6.1172333 13.197601 13.663208l0 0c0 3.623703 -1.3904724 7.098984 -3.865509 9.661331c-2.475006 2.5623474 -5.8318787 4.0018616 -9.332092 4.0018616l0 0c-7.288849 0 -13.197601 -6.117218 -13.197601 -13.663193l0 0c0 -7.5459747 5.9087524 -13.663208 13.197601 -13.663208z" fill-rule="evenodd"/><path fill="#9fc5e8" d="m469.443 231.0163l0 327.9168l-26.395203 0l0 -327.9168z" fill-rule="evenodd"/><path fill="#9fc5e8" d="m498.72797 522.5957l0 0c5.1539307 5.3357544 5.1539307 13.986755 0 19.32251l0 0c-2.475006 2.562317 -5.831848 4.001831 -9.332031 4.001831c-3.500183 0 -6.8569946 -1.4395142 -9.332001 -4.001831l0 0c-5.153961 -5.3357544 -5.153961 -13.986755 0 -19.32251l0 0c5.1539307 -5.3357544 13.510101 -5.3357544 18.664032 0z" fill-rule="evenodd"/><path fill="#9fc5e8" d="m499.05197 522.9177l-18.6763 19.335205l-37.328064 -38.64499l18.67627 -19.335205z" fill-rule="evenodd"/><path fill="#9fc5e8" d="m432.42508 541.9175l0 0c-5.1539307 5.3357544 -13.510101 5.3357544 -18.664032 0l0 0c-2.475006 -2.562317 -3.865448 -6.0375977 -3.865448 -9.661255c0 -3.6236572 1.3904419 -7.098938 3.865448 -9.661255l0 0c5.1539307 -5.3357544 13.510101 -5.3357544 18.664032 0l0 0c5.1539307 5.3357544 5.1539307 13.986755 0 19.32251z" fill-rule="evenodd"/><path fill="#9fc5e8" d="m432.11404 542.2529l-18.6763 -19.335205l37.328094 -38.64499l18.6763 19.335205z" fill-rule="evenodd"/><path fill="#9fc5e8" d="m480.06464 248.0315l0 0c5.1539307 -5.3357544 13.510101 -5.3357544 18.664032 0l0 0c2.475006 2.5623322 3.865448 6.0375824 3.865448 9.661255c0 3.6236572 -1.3904419 7.098938 -3.865448 9.661255l0 0c-5.1539307 5.3357544 -13.510101 5.3357544 -18.664032 0l0 0c-5.1539307 -5.3357544 -5.1539307 -13.98674 0 -19.32251z" fill-rule="evenodd"/><path fill="#9fc5e8" d="m480.37567 247.69606l18.6763 19.33516l-37.328094 38.64502l-18.67627 -19.335175z" fill-rule="evenodd"/><path fill="#9fc5e8" d="m413.76175 267.35327l0 0c-5.1539307 -5.335785 -5.1539307 -13.986755 0 -19.32251l0 0c2.475006 -2.562317 5.831848 -4.001816 9.332031 -4.001816c3.500183 0 6.857025 1.4394989 9.332031 4.001816l0 0c5.1539307 5.3357544 5.1539307 13.986725 0 19.32251l0 0c-5.1539307 5.3357544 -13.510132 5.3357544 -18.664062 0z" fill-rule="evenodd"/><path fill="#9fc5e8" d="m413.43774 267.03122l18.6763 -19.33516l37.328094 38.645004l-18.6763 19.335175z" fill-rule="evenodd"/><path fill="#9fc5e8" d="m558.8968 288.69965l0 0c-5.1539307 -5.3357544 -5.1539307 -13.986725 0 -19.32251l0 0c2.4749756 -2.562317 5.831848 -4.0018005 9.332031 -4.0018005c3.500183 0 6.8569946 1.4394836 9.332031 4.0018005l0 0c5.1539307 5.335785 5.1539307 13.986755 0 19.32251l0 0c-5.1539917 5.3357544 -13.510132 5.3357544 -18.664062 0z" fill-rule="evenodd"/><path fill="#9fc5e8" d="m334.92822 520.56964l0 0c-5.1539307 -5.3357544 -5.1539307 -13.986755 0 -19.32251l0 0c2.475006 -2.5623474 5.831848 -4.001831 9.332031 -4.001831c3.500183 0 6.857025 1.4394836 9.332031 4.001831l0 0c5.1539307 5.3357544 5.1539307 13.986755 0 19.32251l0 0c-5.153961 5.3357544 -13.510132 5.3357544 -18.664062 0z" fill-rule="evenodd"/><path fill="#9fc5e8" d="m334.92822 501.24713l223.96857 -231.87l18.664062 19.32251l-223.96857 231.87z" fill-rule="evenodd"/><path fill="#9fc5e8" d="m513.3708 273.63336l0 0c0 -7.5458374 5.9086304 -13.662933 13.197327 -13.662933l0 0c3.500183 0 6.8569946 1.4394836 9.33197 4.00177c2.4749756 2.5622864 3.8654175 6.0375366 3.8654175 9.661163l0 0c0 7.5458374 -5.9086914 13.662933 -13.197388 13.662933l0 0c-7.2886963 0 -13.197327 -6.117096 -13.197327 -13.662933z" fill-rule="evenodd"/><path fill="#9fc5e8" d="m513.36163 273.16846l26.411987 0l0 54.651764l-26.411987 0z" fill-rule="evenodd"/><path fill="#9fc5e8" d="m573.4504 308.5077l0 0c7.2886963 0 13.197388 6.117096 13.197388 13.662933l0 0c0 3.6236267 -1.3904419 7.0988464 -3.8654175 9.661163c-2.4749756 2.5622864 -5.831787 4.00177 -9.33197 4.00177l0 0c-7.2886963 0 -13.197327 -6.117096 -13.197327 -13.662933l0 0c0 -7.5458374 5.9086304 -13.662933 13.197327 -13.662933z" fill-rule="evenodd"/><path fill="#9fc5e8" d="m573.8995 308.4982l0 27.343811l-52.78943 0l0 -27.343811z" fill-rule="evenodd"/><path fill="#9fc5e8" d="m339.03912 481.44012l0 0c-7.2886963 0 -13.197357 -6.117096 -13.197357 -13.662933l0 0c0 -3.6236267 1.3904419 -7.0988464 3.8654175 -9.661163c2.4749756 -2.5622864 5.831787 -4.00177 9.33194 -4.00177l0 0c7.2886963 0 13.197327 6.117096 13.197327 13.662933l0 0c0 7.5458374 -5.9086304 13.662933 -13.197327 13.662933z" fill-rule="evenodd"/><path fill="#9fc5e8" d="m338.59006 481.44962l0 -27.343811l52.7894 0l0 27.343811z" fill-rule="evenodd"/><path fill="#9fc5e8" d="m399.1187 516.31445l0 0c0 7.5458374 -5.9086304 13.662964 -13.197327 13.662964l0 0c-3.5001526 0 -6.856964 -1.4395142 -9.33194 -4.00177c-2.4749756 -2.562317 -3.8654175 -6.0375366 -3.8654175 -9.661194l0 0c0 -7.545807 5.908661 -13.662933 13.197357 -13.662933l0 0c7.2886963 0 13.197327 6.1171265 13.197327 13.662933z" fill-rule="evenodd"/><path fill="#9fc5e8" d="m399.1279 516.77936l-26.412018 0l0 -54.651733l26.412018 0z" fill-rule="evenodd"/><path fill="#9fc5e8" d="m563.1612 501.24658l0 0c5.1539307 -5.3357544 13.510132 -5.3357544 18.664062 0l0 0c2.4749756 2.562317 3.8654175 6.037567 3.8654175 9.661255c0 3.6236572 -1.3904419 7.098938 -3.8654175 9.661255l0 0c-5.1539307 5.3357544 -13.510132 5.3357544 -18.664062 0l0 0c-5.1539307 -5.3357544 -5.1539307 -13.986755 0 -19.32251z" fill-rule="evenodd"/><path fill="#9fc5e8" d="m339.19263 269.37662l0 0c5.1539307 -5.3357544 13.510132 -5.3357544 18.664062 0l0 0c2.475006 2.562317 3.865448 6.037567 3.865448 9.661255c0 3.6236572 -1.3904419 7.0989075 -3.865448 9.661255l0 0c-5.1539307 5.3357544 -13.510132 5.3357544 -18.664062 0l0 0c-5.1539307 -5.335785 -5.1539307 -13.986755 0 -19.32251z" fill-rule="evenodd"/><path fill="#9fc5e8" d="m357.8567 269.37662l223.96857 231.86996l-18.664062 19.32251l-223.96857 -231.86996z" fill-rule="evenodd"/><path fill="#9fc5e8" d="m577.71405 454.11447l0 0c7.2886963 0 13.197388 6.1171265 13.197388 13.662933l0 0c0 3.6236572 -1.3904419 7.098877 -3.8654175 9.661163c-2.4749756 2.5622864 -5.831787 4.0018005 -9.33197 4.0018005l0 0c-7.2886963 0 -13.197327 -6.1171265 -13.197327 -13.662964l0 0c0 -7.545807 5.9086304 -13.662933 13.197327 -13.662933z" fill-rule="evenodd"/><path fill="#9fc5e8" d="m578.16315 454.10498l0 27.343811l-52.78943 0l0 -27.343811z" fill-rule="evenodd"/><path fill="#9fc5e8" d="m544.02814 516.31366l0 0c0 7.5458374 -5.9086304 13.662903 -13.197327 13.662903l0 0c-3.500183 0 -6.8569946 -1.4394531 -9.33197 -4.00177c-2.4749756 -2.562317 -3.8654175 -6.0375366 -3.8654175 -9.661133l0 0c0 -7.5458374 5.9086914 -13.662964 13.197388 -13.662964l0 0c7.2886963 0 13.197327 6.1171265 13.197327 13.662964z" fill-rule="evenodd"/><path fill="#9fc5e8" d="m544.0373 516.77856l-26.411987 0l0 -54.651764l26.411987 0z" fill-rule="evenodd"/><path fill="#9fc5e8" d="m376.9887 273.63254l0 0c0 -7.5458374 5.908661 -13.662933 13.197357 -13.662933l0 0c3.5001526 0 6.8569336 1.4394836 9.331909 4.00177c2.475006 2.5622864 3.8654175 6.0375366 3.8654175 9.661163l0 0c0 7.5458374 -5.908661 13.662933 -13.197327 13.662933l0 0c-7.2886963 0 -13.197357 -6.117096 -13.197357 -13.662933z" fill-rule="evenodd"/><path fill="#9fc5e8" d="m376.97955 273.16763l26.411987 0l0 54.651764l-26.411987 0z" fill-rule="evenodd"/><path fill="#9fc5e8" d="m343.3028 335.8317l0 0c-7.2886963 0 -13.197357 -6.117096 -13.197357 -13.662933l0 0c0 -3.6236267 1.3904419 -7.0988464 3.8654175 -9.661163c2.4749756 -2.5622864 5.831787 -4.00177 9.33194 -4.00177l0 0c7.2886963 0 13.197327 6.117096 13.197327 13.662933l0 0c0 7.5458374 -5.9086304 13.662933 -13.197327 13.662933z" fill-rule="evenodd"/><path fill="#9fc5e8" d="m342.85373 335.8412l0 -27.343811l52.7894 0l0 27.343811z" fill-rule="evenodd"/></g></svg>