<svg version="1.1" viewBox="0.0 0.0 913.0262467191601 625.0262467191601" fill="none" stroke="none" stroke-linecap="square" stroke-miterlimit="10" xmlns:xlink="http://www.w3.org/1999/xlink" xmlns="http://www.w3.org/2000/svg"><clipPath id="p.0"><path d="m0 0l913.02625 0l0 625.02625l-913.02625 0l0 -625.02625z" clip-rule="nonzero"/></clipPath><g clip-path="url(#p.0)"><path fill="#000000" fill-opacity="0.0" d="m0 0l913.02625 0l0 625.02625l-913.02625 0z" fill-rule="evenodd"/><path fill="#d9d9d9" d="m136.19527 368.7284l612.93243 0l0 207.79095l-612.93243 0z" fill-rule="evenodd"/><path fill="#d9d9d9" d="m20.93764 472.62387l0 0c0 -57.379913 46.54396 -103.89548 103.95884 -103.89548l0 0c27.571602 0 54.01394 10.946075 73.51 30.430267c19.496063 19.484192 30.448837 45.9104 30.448837 73.46521l0 0c0 57.379852 -46.54396 103.89548 -103.95884 103.89548l0 0c-57.41488 0 -103.95884 -46.515625 -103.95884 -103.89548z" fill-rule="evenodd"/><path fill="#d9d9d9" d="m601.01746 431.06256l0 0c0 -80.319855 65.15875 -145.43198 145.5362 -145.43198l0 0c38.59857 0 75.61627 15.322266 102.90961 42.59604c27.293335 27.273804 42.626526 64.264984 42.626526 102.83594l0 0c0 80.319855 -65.15875 145.432 -145.53613 145.432l0 0c-80.37744 0 -145.5362 -65.11215 -145.5362 -145.432z" fill-rule="evenodd"/><path fill="#d9d9d9" d="m365.7791 261.0066l0 0c0 -117.36095 95.197876 -212.5008 212.63037 -212.5008l0 0c56.393127 0 110.4765 22.388416 150.35242 62.240047c39.875916 39.85163 62.278015 93.90203 62.278015 150.26074l0 0c0 117.36096 -95.197876 212.5008 -212.63043 212.5008l0 0c-117.432495 0 -212.63037 -95.13983 -212.63037 -212.5008z" fill-rule="evenodd"/><path fill="#d9d9d9" d="m97.25318 316.7884l0 0c0 -57.379883 46.54397 -103.89548 103.95884 -103.89548l0 0c27.57161 0 54.013947 10.946091 73.509995 30.430283c19.496063 19.484177 30.448853 45.910385 30.448853 73.465195l0 0c0 57.379883 -46.543945 103.89548 -103.95885 103.89548l0 0c-57.41487 0 -103.95884 -46.515594 -103.95884 -103.89548z" fill-rule="evenodd"/><path fill="#d9d9d9" d="m199.9972 212.89328l392.73682 0l0 207.79095l-392.73682 0z" fill-rule="evenodd"/><path fill="#d9d9d9" d="m228.85532 212.89807l0 0c0 -57.379883 46.543976 -103.89548 103.95883 -103.89548l0 0c27.571625 0 54.013947 10.946098 73.51001 30.430283c19.496063 19.484177 30.448853 45.9104 30.448853 73.465195l0 0c0 57.379883 -46.543976 103.89548 -103.95886 103.89548l0 0c-57.414856 0 -103.95883 -46.515594 -103.95883 -103.89548z" fill-rule="evenodd"/></g></svg>