<svg version="1.1" viewBox="0.0 0.0 912.49343832021 618.2598425196851" fill="none" stroke="none" stroke-linecap="square" stroke-miterlimit="10" xmlns:xlink="http://www.w3.org/1999/xlink" xmlns="http://www.w3.org/2000/svg"><clipPath id="p.0"><path d="m0 0l912.4934 0l0 618.2598l-912.4934 0l0 -618.2598z" clip-rule="nonzero"/></clipPath><g clip-path="url(#p.0)"><path fill="#000000" fill-opacity="0.0" d="m0 0l912.4934 0l0 618.2598l-912.4934 0z" fill-rule="evenodd"/><path fill="#9fc5e8" d="m421.30127 60.99607l0 0c19.299164 -19.308552 50.589325 -19.308552 69.88849 0l139.77283 139.8407l0 0c9.267822 9.272293 14.474365 21.84822 14.474365 34.961227c0 13.112991 -5.206543 25.688934 -14.474365 34.961212l-139.77283 139.8407c-19.299164 19.308563 -50.589325 19.308563 -69.88849 0l-139.77283 -139.8407c-19.299164 -19.308548 -19.299164 -50.61389 0 -69.92244z" fill-rule="evenodd"/><path fill="#9fc5e8" d="m421.30127 217.44524l0 0c19.299164 -19.308563 50.589325 -19.308563 69.88849 0l139.77283 139.84068l0 0c9.267822 9.272308 14.474365 21.848236 14.474365 34.961243c0 13.113007 -5.206543 25.688934 -14.474365 34.961212l-139.77283 139.8407c-19.299164 19.308533 -50.589325 19.308533 -69.88849 0l-139.77283 -139.8407c-19.299164 -19.308533 -19.299164 -50.61389 0 -69.922455z" fill-rule="evenodd"/><path fill="#9fc5e8" d="m266.99585 241.81764l0 0c0 -20.067047 16.267548 -36.334595 36.334595 -36.334595l305.83014 0c9.636536 0 18.878418 3.8280945 25.692444 10.642151c6.814087 6.8140564 10.642151 16.055908 10.642151 25.692444l0 145.33397c0 20.067047 -16.267517 36.334595 -36.334595 36.334595l-305.83014 0c-20.067047 0 -36.334595 -16.267548 -36.334595 -36.334595z" fill-rule="evenodd"/><path fill="#cfe2f3" d="m627.6748 234.10136l0 0c0 -13.652466 -11.062134 -24.720001 -24.707947 -24.720001l0 0c-6.5529785 0 -12.837585 2.6044312 -17.471191 7.240326c-4.633667 4.635895 -7.2368164 10.923523 -7.2368164 17.479675l0 0c0 13.652481 11.062134 24.720016 24.708008 24.720016l0 0c13.645813 0 24.707947 -11.067535 24.707947 -24.720016z" fill-rule="evenodd"/><path fill="#cfe2f3" d="m586.1517 216.02905l-146.17276 146.04913l34.954346 34.971344l146.17282 -146.04913z" fill-rule="evenodd"/><path fill="#efefef" d="m481.41827 380.383l0 0c0 -13.652466 -11.062134 -24.720001 -24.707977 -24.720001l0 0c-6.5529785 0 -12.837555 2.6044312 -17.471222 7.240326c-4.6336365 4.635895 -7.236786 10.923523 -7.236786 17.479675l0 0c0 13.652466 11.062134 24.720001 24.708008 24.720001l0 0c13.6458435 0 24.707977 -11.067535 24.707977 -24.720001z" fill-rule="evenodd"/><path fill="#cfe2f3" d="m438.75827 542.6134l0 0c9.648987 9.653687 25.29306 9.653687 34.942047 0l0 0c4.633606 -4.6358643 7.236725 -10.923401 7.236725 -17.479492c0 -6.5560913 -2.603119 -12.843689 -7.236725 -17.479553l0 0c-9.648987 -9.653656 -25.29306 -9.653656 -34.942047 0l0 0c-9.648987 9.653687 -9.648987 25.305359 0 34.959045z" fill-rule="evenodd"/><path fill="#cfe2f3" d="m480.8917 526.0161l0.09725952 -157.85764l-49.448425 0l-0.09725952 157.85764z" fill-rule="evenodd"/><path fill="#cfe2f3" d="m285.28098 234.10136l0 0c0 -13.652466 11.062134 -24.720001 24.708008 -24.720001l0 0c6.552948 0 12.837524 2.6044312 17.471191 7.240326c4.6336365 4.635895 7.236786 10.923523 7.236786 17.479675l0 0c0 13.652481 -11.062134 24.720016 -24.707977 24.720016l0 0c-13.645874 0 -24.708008 -11.067535 -24.708008 -24.720016z" fill-rule="evenodd"/><path fill="#cfe2f3" d="m326.8041 216.02905l146.17279 146.04913l-34.954376 34.971344l-146.17279 -146.04913z" fill-rule="evenodd"/><path fill="#cfe2f3" d="m431.5375 380.383l0 0c0 -13.652466 11.062164 -24.720001 24.708008 -24.720001l0 0c6.5529785 0 12.837555 2.6044312 17.471191 7.240326c4.633667 4.635895 7.2368164 10.923523 7.2368164 17.479675l0 0c0 13.652466 -11.062164 24.720001 -24.708008 24.720001l0 0c-13.6458435 0 -24.708008 -11.067535 -24.708008 -24.720001z" fill-rule="evenodd"/></g></svg>
