<svg version="1.1" viewBox="0.0 0.0 912.49343832021 618.2598425196851" fill="none" stroke="none" stroke-linecap="square" stroke-miterlimit="10" xmlns:xlink="http://www.w3.org/1999/xlink" xmlns="http://www.w3.org/2000/svg"><clipPath id="p.0"><path d="m0 0l912.4934 0l0 618.2598l-912.4934 0l0 -618.2598z" clip-rule="nonzero"/></clipPath><g clip-path="url(#p.0)"><path fill="#000000" fill-opacity="0.0" d="m0 0l912.4934 0l0 618.2598l-912.4934 0z" fill-rule="evenodd"/><path fill="#ff9900" d="m175.7988 122.45418l373.38272 0l0 373.34882l-373.38272 0z" fill-rule="evenodd"/><path fill="#ff9900" d="m362.49017 45.13928l264.01392 263.98993l-264.01392 263.98993l-264.01395 -263.98993z" fill-rule="evenodd"/><path fill="#ff9900" d="m463.54205 65.23933l142.86053 344.93118l-344.9625 142.84756l-142.86057 -344.93115z" fill-rule="evenodd"/><path fill="#ff9900" d="m261.4555 65.22584l344.96252 142.87207l-142.88504 344.93115l-344.96255 -142.87204z" fill-rule="evenodd"/><path fill="#ffff00" d="m183.27544 309.12857l0 0c0 -98.97081 80.239 -179.20251 179.21883 -179.20251l0 0c47.53177 0 93.11679 18.880203 126.72684 52.487198c33.610016 33.606995 52.491974 79.18785 52.491974 126.71532l0 0c0 98.970825 -80.23901 179.20255 -179.21881 179.20255l0 0c-98.97983 0 -179.21883 -80.23172 -179.21883 -179.20255z" fill-rule="evenodd"/><path fill="#d9d9d9" d="m137.96457 361.91995l602.9241 0l0 211.19998l-602.9241 0z" fill-rule="evenodd"/><path fill="#d9d9d9" d="m20.879633 467.51956l0 0c0 -58.32126 47.283028 -105.599976 105.609604 -105.599976l0 0c28.009407 0 54.87162 11.125671 74.67727 30.929504c19.805634 19.803864 30.932327 46.663635 30.932327 74.67047l0 0c0 58.32126 -47.28302 105.600006 -105.6096 105.600006l0 0c-58.326576 0 -105.609604 -47.278748 -105.609604 -105.600006z" fill-rule="evenodd"/><path fill="#d9d9d9" d="m595.9196 425.2865l0 0c0 -81.645935 66.19318 -147.83307 147.8465 -147.83307l0 0c39.211365 0 76.81671 15.575226 104.543274 43.299316c27.726624 27.72406 43.303284 65.32599 43.303284 104.53375l0 0c0 81.645966 -66.19318 147.83307 -147.84656 147.83307l0 0c-81.65332 0 -147.8465 -66.1871 -147.8465 -147.83307z" fill-rule="evenodd"/><path fill="#d9d9d9" d="m433.71356 291.94977l0 0c0 -81.645966 66.193146 -147.83308 147.8465 -147.83308l0 0c39.211365 0 76.81671 15.575226 104.543274 43.2993c27.726624 27.72409 43.303223 65.326004 43.303223 104.53378l0 0c0 81.645935 -66.193115 147.83307 -147.8465 147.83307l0 0c-81.65335 0 -147.8465 -66.18713 -147.8465 -147.83307z" fill-rule="evenodd"/><path fill="#d9d9d9" d="m301.73718 360.09344l0 0c0 -58.32126 47.28302 -105.59999 105.60959 -105.59999l0 0c28.00943 0 54.871643 11.125687 74.67728 30.92952c19.805634 19.803864 30.932312 46.663635 30.932312 74.67047l0 0c0 58.32129 -47.28299 105.600006 -105.60959 105.600006l0 0c-58.32657 0 -105.60959 -47.278717 -105.60959 -105.600006z" fill-rule="evenodd"/></g></svg>