<svg version="1.1" viewBox="0.0 0.0 912.49343832021 618.2598425196851" fill="none" stroke="none" stroke-linecap="square" stroke-miterlimit="10" xmlns:xlink="http://www.w3.org/1999/xlink" xmlns="http://www.w3.org/2000/svg"><clipPath id="p.0"><path d="m0 0l912.4934 0l0 618.2598l-912.4934 0l0 -618.2598z" clip-rule="nonzero"/></clipPath><g clip-path="url(#p.0)"><path fill="#000000" fill-opacity="0.0" d="m0 0l912.4934 0l0 618.2598l-912.4934 0z" fill-rule="evenodd"/><path fill="#6fa8dc" d="m292.98334 425.5354l0 0c0 -94.766754 86.12988 -171.5904 192.37653 -171.5904l0 0c106.24664 0 192.37653 76.82364 192.37653 171.5904l0 0c0 94.766785 -86.12988 171.5904 -192.37653 171.5904l0 0c-106.24664 0 -192.37653 -76.82361 -192.37653 -171.5904z" fill-rule="evenodd"/><path fill="#6fa8dc" d="m311.02972 352.86813l174.33014 -331.73395l174.33014 331.73395z" fill-rule="evenodd"/><path fill="#9fc5e8" d="m383.13632 290.27396l0 0c11.958893 -22.25122 39.793884 -31.464935 62.171143 -20.579407l0 0c10.745941 5.2274475 18.770416 14.485535 22.308136 25.73761c3.5377197 11.252075 2.2988892 23.576416 -3.4439697 34.26184l0 0c-11.958893 22.251251 -39.793884 31.464966 -62.171143 20.579407l0 0c-22.377289 -10.885529 -30.82306 -37.7482 -18.864166 -59.99945z" fill-rule="evenodd"/><path fill="#9fc5e8" d="m339.82935 370.8528l0 0c11.958893 -22.25122 39.793854 -31.464935 62.171143 -20.579407l0 0c10.745941 5.227417 18.770416 14.485504 22.308136 25.73758c3.5377197 11.252106 2.2988586 23.576447 -3.4440002 34.26187l0 0c-11.958893 22.25122 -39.793854 31.464935 -62.171143 20.579407l0 0c-22.377258 -10.885529 -30.823029 -37.7482 -18.864136 -59.99945z" fill-rule="evenodd"/><path fill="#9fc5e8" d="m381.7321 292.88678l81.03528 39.420044l-43.307007 80.57886l-81.03528 -39.420044z" fill-rule="evenodd"/></g></svg>