<svg version="1.1" viewBox="0.0 0.0 912.49343832021 618.2598425196851" fill="none" stroke="none" stroke-linecap="square" stroke-miterlimit="10" xmlns:xlink="http://www.w3.org/1999/xlink" xmlns="http://www.w3.org/2000/svg"><clipPath id="p.0"><path d="m0 0l912.4934 0l0 618.2598l-912.4934 0l0 -618.2598z" clip-rule="nonzero"/></clipPath><g clip-path="url(#p.0)"><path fill="#000000" fill-opacity="0.0" d="m0 0l912.4934 0l0 618.2598l-912.4934 0z" fill-rule="evenodd"/><path fill="#9fc5e8" d="m728.52856 309.1286l0 0c0 -12.381348 10.11554 -22.418396 22.593628 -22.418396l0 0c5.9921875 0 11.738953 2.361908 15.976074 6.5661926c4.2371216 4.204254 6.6174927 9.906464 6.6174927 15.852203l0 0c0 12.381317 -10.1154785 22.418396 -22.593567 22.418396l0 0c-12.478088 0 -22.593628 -10.037079 -22.593628 -22.418396z" fill-rule="evenodd"/><path fill="#9fc5e8" d="m186.28218 309.1286l0 0c0 -12.381348 10.115494 -22.418396 22.593597 -22.418396l0 0c5.9922028 0 11.738968 2.361908 15.9760895 6.5661926c4.2371216 4.204254 6.617508 9.906464 6.617508 15.852203l0 0c0 12.381317 -10.115494 22.418396 -22.593597 22.418396l0 0c-12.478104 0 -22.593597 -10.037079 -22.593597 -22.418396z" fill-rule="evenodd"/><path fill="#9fc5e8" d="m208.87578 286.7102l542.2464 0l0 44.836792l-542.2464 0z" fill-rule="evenodd"/><path fill="#9fc5e8" d="m691.03436 236.9646l0 0c8.823242 -8.754852 23.128601 -8.754852 31.951843 0l0 0c4.2370605 4.2042236 6.6174316 9.906372 6.6174316 15.852051c0 5.9456787 -2.380371 11.647827 -6.6174316 15.852051l0 0c-8.823242 8.754852 -23.128601 8.754852 -31.951843 0l0 0c-8.823303 -8.754852 -8.823303 -22.94925 0 -31.704102z" fill-rule="evenodd"/><path fill="#9fc5e8" d="m691.56683 236.41422l31.97284 31.724915l-63.903748 63.408203l-31.97284 -31.724915z" fill-rule="evenodd"/><path fill="#9fc5e8" d="m722.985 349.59146l0 0c8.823303 8.754852 8.823303 22.94928 0 31.704102l0 0c-4.2370605 4.2042236 -9.983765 6.566162 -15.975952 6.566162c-5.9921265 0 -11.738831 -2.3619385 -15.975891 -6.566162l0 0c-8.823303 -8.754822 -8.823303 -22.94925 0 -31.704102l0 0c8.823242 -8.754822 23.128601 -8.754822 31.951843 0z" fill-rule="evenodd"/><path fill="#9fc5e8" d="m723.5397 350.11984l-31.97284 31.724915l-63.903748 -63.408203l31.97284 -31.724915z" fill-rule="evenodd"/><path fill="#9fc5e8" d="m237.01228 268.66748l0 0c-8.823257 -8.754822 -8.823257 -22.94925 0 -31.704086l0 0c4.237091 -4.2042236 9.983795 -6.5661316 15.975937 -6.5661316c5.9921265 0 11.738861 2.361908 15.975922 6.5661316l0 0c8.823273 8.754837 8.823273 22.949265 0 31.704086l0 0c-8.823242 8.754852 -23.128586 8.754852 -31.951859 0z" fill-rule="evenodd"/><path fill="#9fc5e8" d="m236.4576 268.13913l31.972824 -31.724915l63.903748 63.408203l-31.97284 31.724915z" fill-rule="evenodd"/><path fill="#9fc5e8" d="m268.96295 381.29437l0 0c-8.823273 8.754852 -23.128616 8.754852 -31.951889 0l0 0c-4.237076 -4.2042236 -6.617447 -9.906372 -6.617447 -15.852051c0 -5.9456787 2.380371 -11.647827 6.617447 -15.852051l0 0c8.823273 -8.754852 23.128616 -8.754852 31.951889 0l0 0c8.823242 8.754852 8.823242 22.94925 0 31.704102z" fill-rule="evenodd"/><path fill="#9fc5e8" d="m268.43042 381.84476l-31.972824 -31.724915l63.903732 -63.408203l31.97284 31.724915z" fill-rule="evenodd"/><path fill="#9fc5e8" d="m479.99988 555.7319l0 0c12.478088 0 22.593597 10.037048 22.593597 22.418396l0 0c0 5.9457397 -2.3804016 11.647949 -6.617523 15.852234c-4.2371216 4.2042236 -9.983887 6.566162 -15.976074 6.566162l0 0c-12.478088 0 -22.593597 -10.037048 -22.593597 -22.418396l0 0c0 -12.381348 10.115509 -22.418396 22.593597 -22.418396z" fill-rule="evenodd"/><path fill="#9fc5e8" d="m479.99988 17.690283l0 0c12.478088 0 22.593597 10.03706 22.593597 22.418402l0 0c0 5.9457283 -2.3804016 11.647934 -6.617523 15.8522c-4.2371216 4.2042656 -9.983887 6.5662003 -15.976074 6.5662003l0 0c-12.478088 0 -22.593597 -10.03706 -22.593597 -22.4184l0 0c0 -12.381342 10.115509 -22.418402 22.593597 -22.418402z" fill-rule="evenodd"/><path fill="#9fc5e8" d="m502.59348 40.108685l0 538.04156l-45.187195 0l0 -538.04156z" fill-rule="evenodd"/><path fill="#9fc5e8" d="m552.72784 518.5284l0 0c8.823242 8.754883 8.823242 22.94928 0 31.704102l0 0c-4.2371216 4.2042236 -9.983826 6.566162 -15.975952 6.566162c-5.9921265 0 -11.738831 -2.3619385 -15.975952 -6.566162l0 0c-8.823242 -8.754822 -8.823242 -22.949219 0 -31.704102l0 0c8.823303 -8.754822 23.128601 -8.754822 31.951904 0z" fill-rule="evenodd"/><path fill="#9fc5e8" d="m553.28253 519.05676l-31.97284 31.724915l-63.903748 -63.408203l31.97284 -31.724915z" fill-rule="evenodd"/><path fill="#9fc5e8" d="m439.22076 550.23126l0 0c-8.823242 8.754883 -23.128601 8.754883 -31.951843 0l0 0c-4.237091 -4.2042236 -6.617462 -9.906372 -6.617462 -15.852051c0 -5.9456787 2.380371 -11.647827 6.617462 -15.852051l0 0c8.823242 -8.754822 23.128601 -8.754822 31.951843 0l0 0c8.823273 8.754883 8.823273 22.94928 0 31.704102z" fill-rule="evenodd"/><path fill="#9fc5e8" d="m438.68826 550.7817l-31.97284 -31.724915l63.903748 -63.408203l31.97284 31.724915z" fill-rule="evenodd"/><path fill="#9fc5e8" d="m520.77716 68.02701l0 0c8.823303 -8.754845 23.128601 -8.754845 31.951904 0l0 0c4.2370605 4.2042236 6.6174316 9.90638 6.6174316 15.852051c0 5.945671 -2.380371 11.647827 -6.6174316 15.852051l0 0c-8.823303 8.754845 -23.128601 8.754845 -31.951904 0l0 0c-8.823242 -8.754845 -8.823242 -22.949257 0 -31.704102z" fill-rule="evenodd"/><path fill="#9fc5e8" d="m521.3097 67.476616l31.97284 31.724907l-63.903748 63.408203l-31.97284 -31.7249z" fill-rule="evenodd"/><path fill="#9fc5e8" d="m407.27014 99.7299l0 0c-8.823273 -8.754845 -8.823273 -22.94925 0 -31.704102l0 0c4.2370605 -4.20422 9.983795 -6.5661316 15.975922 -6.5661316c5.9921265 0 11.738861 2.3619118 15.975922 6.5661316l0 0c8.823273 8.754852 8.823273 22.949257 0 31.704102l0 0c-8.823242 8.754852 -23.128601 8.754852 -31.951843 0z" fill-rule="evenodd"/><path fill="#9fc5e8" d="m406.71542 99.20152l31.97284 -31.724907l63.903748 63.40821l-31.97284 31.7249z" fill-rule="evenodd"/><path fill="#9fc5e8" d="m655.7337 134.75478l0 0c-8.823303 -8.754845 -8.823303 -22.949257 0 -31.704102l0 0c4.2370605 -4.2042236 9.983765 -6.5661316 15.975891 -6.5661316c5.9921875 0 11.738892 2.361908 15.975952 6.5661316l0 0c8.823242 8.754845 8.823242 22.949257 0 31.704102l0 0c-8.823242 8.754852 -23.128601 8.754852 -31.951843 0z" fill-rule="evenodd"/><path fill="#9fc5e8" d="m272.31125 515.204l0 0c-8.823273 -8.754822 -8.823273 -22.94925 0 -31.704102l0 0c4.237091 -4.2042236 9.983795 -6.5661316 15.975952 -6.5661316c5.9921265 0 11.738831 2.361908 15.975922 6.5661316l0 0c8.823273 8.754852 8.823273 22.94928 0 31.704102l0 0c-8.823273 8.754883 -23.128601 8.754883 -31.951874 0z" fill-rule="evenodd"/><path fill="#9fc5e8" d="m272.31125 483.49988l383.42245 -380.44922l31.951843 31.704102l-383.42242 380.44922z" fill-rule="evenodd"/><path fill="#9fc5e8" d="m577.7956 110.0342l0 0c0 -12.3811035 10.115295 -22.417969 22.59314 -22.417969l0 0c5.9920654 0 11.73877 2.361885 15.975769 6.5660706c4.2370605 4.2041855 6.6174316 9.906288 6.6174316 15.851898l0 0c0 12.3811035 -10.115356 22.417976 -22.5932 22.417976l0 0c-12.477844 0 -22.59314 -10.036873 -22.59314 -22.417976z" fill-rule="evenodd"/><path fill="#9fc5e8" d="m577.7799 109.27141l45.215942 0l0 89.671875l-45.215942 0z" fill-rule="evenodd"/><path fill="#9fc5e8" d="m680.64874 167.25555l0 0c12.477844 0 22.59314 10.036865 22.59314 22.417969l0 0c0 5.9456177 -2.380371 11.64772 -6.6173706 15.851898c-4.2370605 4.204178 -9.983704 6.5660706 -15.975769 6.5660706l0 0c-12.477905 0 -22.5932 -10.036865 -22.5932 -22.417969l0 0c0 -12.3811035 10.115295 -22.417969 22.5932 -22.417969z" fill-rule="evenodd"/><path fill="#9fc5e8" d="m681.4175 167.23999l0 44.865356l-90.37268 0l0 -44.865356z" fill-rule="evenodd"/><path fill="#9fc5e8" d="m279.34888 451.00085l0 0c-12.477844 0 -22.59317 -10.036865 -22.59317 -22.417969l0 0c0 -5.9456177 2.3803406 -11.647705 6.617401 -15.851898c4.23703 -4.204193 9.983704 -6.5660706 15.975769 -6.5660706l0 0c12.477875 0 22.59317 10.036865 22.59317 22.417969l0 0c0 12.3811035 -10.115295 22.417969 -22.59317 22.417969z" fill-rule="evenodd"/><path fill="#9fc5e8" d="m278.5801 451.01642l0 -44.865356l90.37268 0l0 44.865356z" fill-rule="evenodd"/><path fill="#9fc5e8" d="m382.20203 508.2222l0 0c0 12.381073 -10.115295 22.417938 -22.59317 22.417938l0 0c-5.992096 0 -11.738739 -2.3618774 -15.975769 -6.56604c-4.2370605 -4.2041626 -6.617401 -9.906311 -6.617401 -15.851898l0 0c0 -12.3811035 10.115295 -22.417969 22.59317 -22.417969l0 0c12.477875 0 22.59317 10.036865 22.59317 22.417969z" fill-rule="evenodd"/><path fill="#9fc5e8" d="m382.2177 508.985l-45.215973 0l0 -89.671875l45.215973 0z" fill-rule="evenodd"/><path fill="#9fc5e8" d="m663.0341 483.49902l0 0c8.823303 -8.754852 23.128601 -8.754852 31.951904 0l0 0c4.2370605 4.2042236 6.6174316 9.906372 6.6174316 15.852051c0 5.945648 -2.380371 11.647827 -6.6174316 15.852051l0 0c-8.823303 8.754822 -23.128601 8.754822 -31.951904 0l0 0c-8.823242 -8.754852 -8.823242 -22.94928 0 -31.704102z" fill-rule="evenodd"/><path fill="#9fc5e8" d="m279.6117 103.0498l0 0c8.823273 -8.754845 23.128601 -8.754845 31.951874 0l0 0c4.237091 4.2042236 6.617462 9.90638 6.617462 15.852051c0 5.945671 -2.380371 11.6478195 -6.617462 15.852058l0 0c-8.823273 8.754837 -23.128601 8.754837 -31.951874 0l0 0c-8.823273 -8.754852 -8.823273 -22.949265 0 -31.70411z" fill-rule="evenodd"/><path fill="#9fc5e8" d="m311.56357 103.0498l383.42245 380.44922l-31.951904 31.704102l-383.42242 -380.44922z" fill-rule="evenodd"/><path fill="#9fc5e8" d="m687.9479 406.16528l0 0c12.477905 0 22.5932 10.036865 22.5932 22.417969l0 0c0 5.945587 -2.380371 11.647705 -6.6174316 15.851898c-4.2369995 4.2041626 -9.983643 6.5660706 -15.975769 6.5660706l0 0c-12.477844 0 -22.59314 -10.036865 -22.59314 -22.417969l0 0c0 -12.3811035 10.115295 -22.417969 22.59314 -22.417969z" fill-rule="evenodd"/><path fill="#9fc5e8" d="m688.7167 406.1497l0 44.865387l-90.37268 0l0 -44.865387z" fill-rule="evenodd"/><path fill="#9fc5e8" d="m630.27936 508.22086l0 0c0 12.381073 -10.115295 22.417938 -22.59314 22.417938l0 0c-5.9921265 0 -11.73877 -2.3618774 -15.97583 -6.56604c-4.2369995 -4.2042236 -6.6173706 -9.906311 -6.6173706 -15.851898l0 0c0 -12.3811035 10.115295 -22.417969 22.5932 -22.417969l0 0c12.477844 0 22.59314 10.036865 22.59314 22.417969z" fill-rule="evenodd"/><path fill="#9fc5e8" d="m630.29504 508.98364l-45.216003 0l0 -89.671875l45.216003 0z" fill-rule="evenodd"/><path fill="#9fc5e8" d="m344.3166 110.03285l0 0c0 -12.3811035 10.115295 -22.417969 22.59317 -22.417969l0 0c5.9920654 0 11.738739 2.361885 15.975769 6.5660706c4.2370605 4.2041855 6.617401 9.9062805 6.617401 15.851898l0 0c0 12.3811035 -10.115295 22.417969 -22.59317 22.417969l0 0c-12.477875 0 -22.59317 -10.036865 -22.59317 -22.417969z" fill-rule="evenodd"/><path fill="#9fc5e8" d="m344.3009 109.27006l45.215973 0l0 89.67188l-45.215973 0z" fill-rule="evenodd"/><path fill="#9fc5e8" d="m286.64807 212.08842l0 0c-12.477875 0 -22.59317 -10.036865 -22.59317 -22.417969l0 0c0 -5.9456177 2.3803406 -11.647705 6.6173706 -15.851898c4.2370605 -4.204178 9.983704 -6.5660706 15.9758 -6.5660706l0 0c12.477844 0 22.59314 10.036865 22.59314 22.417969l0 0c0 12.3811035 -10.115295 22.417969 -22.59314 22.417969z" fill-rule="evenodd"/><path fill="#9fc5e8" d="m285.8793 212.10399l0 -44.865356l90.37265 0l0 44.865356z" fill-rule="evenodd"/></g></svg>