<svg version="1.1" viewBox="0.0 0.0 904.0839895013123 612.5433070866142" fill="none" stroke="none" stroke-linecap="square" stroke-miterlimit="10" xmlns:xlink="http://www.w3.org/1999/xlink" xmlns="http://www.w3.org/2000/svg"><clipPath id="p.0"><path d="m0 0l904.084 0l0 612.54333l-904.084 0l0 -612.54333z" clip-rule="nonzero"/></clipPath><g clip-path="url(#p.0)"><path fill="#000000" fill-opacity="0.0" d="m0 0l904.084 0l0 612.54333l-904.084 0z" fill-rule="evenodd"/><path fill="#ff9900" d="m265.36914 119.59859l373.344 0l0 373.344l-373.344 0z" fill-rule="evenodd"/><path fill="#ff9900" d="m452.04117 42.28468l263.98654 263.98654l-263.98654 263.98654l-263.98657 -263.98654z" fill-rule="evenodd"/><path fill="#ff9900" d="m553.0826 62.38447l142.8457 344.92676l-344.92673 142.8457l-142.84572 -344.92673z" fill-rule="evenodd"/><path fill="#ff9900" d="m351.01697 62.37098l344.92676 142.87021l-142.87024 344.92676l-344.92676 -142.87024z" fill-rule="evenodd"/><path fill="#ffff00" d="m272.84503 306.2706l0 0c0 -98.96956 80.23065 -179.20023 179.2002 -179.20023l0 0c47.526855 0 93.10712 18.879967 126.713684 52.486534c33.606567 33.606552 52.486572 79.186844 52.486572 126.7137l0 0c0 98.96954 -80.23071 179.2002 -179.20026 179.2002l0 0c-98.96954 0 -179.2002 -80.23065 -179.2002 -179.2002z" fill-rule="evenodd"/></g></svg>